<mxfile host="app.diagrams.net" modified="2023-07-08T09:49:58.387Z" agent="Mozilla/5.0 (Macintosh; Intel Mac OS X 10_15_7) AppleWebKit/537.36 (KHTML, like Gecko) Chrome/114.0.0.0 Safari/537.36" version="21.3.8" etag="DGMFBNZOxVO2RtrAI5Il" type="github">
  <diagram name="第 1 页" id="g_9M_log5X6aWmikNUvo">
    <mxGraphModel>
      <root>
        <mxCell id="0" />
        <mxCell id="1" parent="0" />
      </root>
    </mxGraphModel>
  </diagram>
</mxfile>
